# xmcd CD database file
#
# Track frame offsets:
#	150
#	23012
#	58505
#	83415
#	123625
#	140612
#	186700
#	211412
#	225957
#	242500
#
# Disc length: 3423 seconds
#
# Revision: 2
# Processed by: cddbd v1.5.1PL0 Copyright (c) Steve Scherf et al.
# Submitted via: CDex 1.51
#
DISCID=810d5d0a
DTITLE=Canned Heat - Dust My Broom
DYEAR=1900
DGENRE=Blues
TTITLE0=I'd Rather Be The Devil
TTITLE1=Wish You Would
TTITLE2=Dust My Broom
TTITLE3=When Things Go Wrong
TTITLE4=Bullfrog Blues
TTITLE5=Sweet Sixteen
TTITLE6=Human Condition
TTITLE7=She's Looking Good
TTITLE8=Open Up Your Back Door
TTITLE9=Wrapped Up
EXTD=
EXTT0=
EXTT1=
EXTT2=
EXTT3=
EXTT4=
EXTT5=
EXTT6=
EXTT7=
EXTT8=
EXTT9=
PLAYORDER=
